<svg xmlns="http://www.w3.org/2000/svg" viewBox="0 0 409.725 409.725">
  <defs>
    <style>
      .cls-1 {
        opacity: 0.2;
      }

      .cls-2 {
        fill: #0f1014;
      }
    </style>
  </defs>
  <g id="Layer_2" data-name="Layer 2">
    <g id="Layer_1-2" data-name="Layer 1">
      <g class="cls-1">
        <path class="cls-2" d="M408.725,1V408.725H1V1H408.725m1-1H0V409.725H409.725V0Z"/>
      </g>
      <g class="cls-1">
        <g>
          <path class="cls-2" d="M64.059,204.181v-3.228l10.332-2.2V124.371l-10.332-2.2v-3.228h30.09q14.2,0,24.279,5.036a36.015,36.015,0,0,1,15.3,13.819,38.115,38.115,0,0,1,5.23,19.888q0,14.334-5.618,24.731A39.521,39.521,0,0,1,117.525,198.5q-10.2,5.685-24.28,5.682Zm30.994-80.714H82.139v76.194H95.7a34.222,34.222,0,0,0,18.4-4.843,32.879,32.879,0,0,0,12.139-13.366,43.088,43.088,0,0,0,4.326-19.759,46.261,46.261,0,0,0-4.132-20.146,30.367,30.367,0,0,0-12.075-13.366Q106.417,123.468,95.053,123.467Z"/>
          <path class="cls-2" d="M179.318,205.473q-9.169,0-15.431-3.875a24.568,24.568,0,0,1-9.428-10.46,36.264,36.264,0,0,1,.516-30.736,31.319,31.319,0,0,1,9.686-11.365,22.175,22.175,0,0,1,13.109-4.262q10.2,0,16.013,6.716t6.716,18.6l-.388.387h-42.23q-.13,1.936-.13,4.132,0,11.367,6.136,18.4t17.24,7.038a32.1,32.1,0,0,0,11.041-1.808,19.327,19.327,0,0,0,7.814-4.908h.387v1.679a21.783,21.783,0,0,1-8.33,7.49A26.319,26.319,0,0,1,179.318,205.473Zm-3.1-57.856q-6.328,0-11.364,5.23t-6.587,14.787H193.4q-1.292-9.426-5.3-14.723T176.219,147.617Z"/>
          <path class="cls-2" d="M224.672,205.473a14.441,14.441,0,0,1-9.944-3.552q-4-3.55-4-9.879a13.51,13.51,0,0,1,4.455-10.332q4.455-4.131,14.787-6.715l12.656-3.229V161.048a11.243,11.243,0,0,0-4-8.976,13.72,13.72,0,0,0-9.169-3.422q-5.554,0-7.814,2.26a8.287,8.287,0,0,0-2.259,6.134v5.295l-.646.646h-3.358a3.983,3.983,0,0,1-2.712-.646,3.485,3.485,0,0,1-.646-2.454,9.25,9.25,0,0,1,1.679-5.036,15.976,15.976,0,0,1,4.908-4.65,59.42,59.42,0,0,1,7.037-3.809,16.392,16.392,0,0,1,6.781-1.615q7.749,0,12.2,3.423t4.456,10.654v40.163a7.744,7.744,0,0,0,2.389,1.421,8.843,8.843,0,0,0,3.163.517h6.716l.13.129v.258a11.694,11.694,0,0,1-2.971,2.712,9.652,9.652,0,0,1-5.554,1.421q-4.521,0-6.973-2.325a9.474,9.474,0,0,1-2.97-5.424h-.258a28.006,28.006,0,0,1-8.072,5.553A23.436,23.436,0,0,1,224.672,205.473Zm-7.489-15.756q0,5.3,2.969,7.943t8.394,2.647a27.956,27.956,0,0,0,6.974-.969,25.816,25.816,0,0,0,7.1-3.034V174.478a101.1,101.1,0,0,0-16.207,4.391q-5.492,2.2-7.361,4.779A10.059,10.059,0,0,0,217.183,189.717Z"/>
          <path class="cls-2" d="M284.13,205.473a11.493,11.493,0,0,1-8.588-3.358q-3.294-3.357-3.294-9.427v-42.23H260.884v-1.163l12.139-3.228,4.262-14.206h1.42v14.206h17.048v4.391H278.705v41.971a7.291,7.291,0,0,0,2.454,6,9.884,9.884,0,0,0,6.458,2,19.227,19.227,0,0,0,5.165-.646,19.637,19.637,0,0,0,4.391-1.807l.129.128v.517a12.566,12.566,0,0,1-4.391,4.52A15.123,15.123,0,0,1,284.13,205.473Z"/>
          <path class="cls-2" d="M306.444,204.181v-1.937l8.136-2.195V113.523l-9.428-2.454v-1.937l14.594-1.808h1.291v46.75h.258a36.417,36.417,0,0,1,9.04-7.1,20.563,20.563,0,0,1,9.556-2.2q8.137,0,13.367,4.52t5.23,13.173v37.581l8.137,2.195v1.937H342.862v-1.937l9.169-2.195V165.955q0-7.876-4.2-11.946t-11.042-4.068a22.079,22.079,0,0,0-8.394,1.873,18.353,18.353,0,0,0-7.361,5.359v42.876l9.169,2.195v1.937Z"/>
          <path class="cls-2" d="M88.467,318.875a45.917,45.917,0,0,1-12.785-1.55,66.235,66.235,0,0,1-10.978-4.39l-1.29-19.889h2.324l7.361,16.4a25.711,25.711,0,0,0,8.523,4.326,33.05,33.05,0,0,0,8.524,1.1q8.65,0,13.043-4.585t4.391-12.85q0-6.2-2.906-9.686a25.661,25.661,0,0,0-8.264-6.2q-5.361-2.712-12.592-6.328a63.055,63.055,0,0,1-9.492-5.683,19.056,19.056,0,0,1-5.747-6.65,20.824,20.824,0,0,1-1.937-9.493,18.839,18.839,0,0,1,3.422-10.654,27.963,27.963,0,0,1,8.847-8.394,22.014,22.014,0,0,1,11.622-3.293,35.962,35.962,0,0,1,10.4,1.42,58.471,58.471,0,0,1,9.75,4l1.292,19.372h-2.325l-5.682-15.368a22.149,22.149,0,0,0-6.327-4.261,18.715,18.715,0,0,0-7.233-1.292q-7.878,0-12.139,4.52A15.421,15.421,0,0,0,74,250.429a15.863,15.863,0,0,0,2,8.265,19.154,19.154,0,0,0,6.134,6.07A97.736,97.736,0,0,0,92.6,270.576a102.281,102.281,0,0,1,12.784,7.167,22.742,22.742,0,0,1,7.426,7.813,23.069,23.069,0,0,1,2.389,11.107,17.888,17.888,0,0,1-3.938,11.428,27.945,27.945,0,0,1-10.009,7.878A29.258,29.258,0,0,1,88.467,318.875Z"/>
          <path class="cls-2" d="M124.522,317.584v-1.938l8.136-2.195V226.925l-9.427-2.454v-1.937l14.594-1.808h1.29v46.75h.259a36.417,36.417,0,0,1,9.04-7.1,20.561,20.561,0,0,1,9.557-2.195q8.136,0,13.366,4.519t5.231,13.173v37.581l8.136,2.195v1.938H160.941v-1.938l9.169-2.195V279.357q0-7.875-4.2-11.946t-11.042-4.068a22.079,22.079,0,0,0-8.394,1.873,18.342,18.342,0,0,0-7.362,5.36v42.875l9.17,2.195v1.938Z"/>
          <path class="cls-2" d="M195.305,317.584v-1.938l8.136-2.195V264.376l-9.426-2.453v-1.937l14.593-1.808H209.9v55.273l9.169,2.195v1.938Zm9.557-79.811a4.851,4.851,0,1,1,3.488-1.421A4.729,4.729,0,0,1,204.862,237.773Z"/>
          <path class="cls-2" d="M225.846,347.287v-1.938l8.136-2.195V264.376l-9.427-1.162v-1.937l13.947-3.1h1.292l.516,8.006h.646a37.908,37.908,0,0,1,9.493-6.069,25.113,25.113,0,0,1,9.879-1.937,20.246,20.246,0,0,1,11.493,3.357,22.838,22.838,0,0,1,7.942,9.493,33.965,33.965,0,0,1,2.906,14.657q0,10.591-4.132,18.016A28.623,28.623,0,0,1,267.559,315a30.141,30.141,0,0,1-15.11,3.874,19.894,19.894,0,0,1-5.94-.969,36.809,36.809,0,0,1-6.069-2.518v27.766l9.168,2.195v1.938Zm31-84.718A22.979,22.979,0,0,0,248,264.247a26.626,26.626,0,0,0-7.555,4.779v41.2a37.294,37.294,0,0,0,7.878,3.94,26.084,26.084,0,0,0,8.652,1.355,18.4,18.4,0,0,0,9.751-2.712q4.453-2.712,7.167-8.846t2.712-16.208q0-8.649-2.841-14.27a19.2,19.2,0,0,0-7.426-8.265A18.761,18.761,0,0,0,256.841,262.569Z"/>
        </g>
        <g>
          <path class="cls-2" d="M69.167,96.912l.2-.745,5.019-1.491L79.5,66.053H70.658l-3.826,7.4h-.746l1.641-9.342h27.58l-1.641,9.342h-.8l-1.143-7.4H82.933L77.814,94.676l4.621,1.491-.149.745Z"/>
          <path class="cls-2" d="M97.835,96.912H94.9l6.063-34.487-3.479-1.043v-.4l6.61-1.341h.3L100.916,79.42h.1a41.6,41.6,0,0,1,3.131-3.105,10.23,10.23,0,0,1,2.609-1.715,6.9,6.9,0,0,1,2.758-.547,4.046,4.046,0,0,1,3.653,1.914q1.217,1.913.571,5.441L112,91a8.163,8.163,0,0,0-.174,2.758.869.869,0,0,0,.919.77q1.988,0,3.776-3.926l.647.249a15.132,15.132,0,0,1-2.933,5.019,4.516,4.516,0,0,1-3.179,1.54,2.09,2.09,0,0,1-2.038-1.217,6.7,6.7,0,0,1-.149-3.851l1.938-11.132a5.723,5.723,0,0,0-.3-3.4,2.688,2.688,0,0,0-2.734-1.416,5.936,5.936,0,0,0-3.7,1.491,30.493,30.493,0,0,0-3.454,3.23Z"/>
          <path class="cls-2" d="M127.591,97.409q-3.728,0-5.491-2.285a9.408,9.408,0,0,1-1.764-5.914,16.237,16.237,0,0,1,.994-5.64,16.666,16.666,0,0,1,2.733-4.845,14.308,14.308,0,0,1,3.926-3.4,8.986,8.986,0,0,1,4.571-1.268,5.353,5.353,0,0,1,3.827,1.193,3.645,3.645,0,0,1,1.241,2.684,4.126,4.126,0,0,1-1.365,2.956,11.779,11.779,0,0,1-4.5,2.435,47.492,47.492,0,0,1-8.4,1.814,21.518,21.518,0,0,0-.2,2.932,8.088,8.088,0,0,0,1.491,5.218,5.184,5.184,0,0,0,4.274,1.839q3.975,0,6.957-4.622h.1l.4.3a13.644,13.644,0,0,1-3.6,4.671A7.872,7.872,0,0,1,127.591,97.409Zm3.926-21.964a6.579,6.579,0,0,0-4.97,2.311,12.984,12.984,0,0,0-2.982,6.186,31.919,31.919,0,0,0,8.548-2.211,3.931,3.931,0,0,0,2.534-3.6,2.6,2.6,0,0,0-.77-1.913A3.215,3.215,0,0,0,131.517,75.445Z"/>
        </g>
      </g>
    </g>
  </g>
</svg>
